<?xml version="1.0" standalone="no"?>
<!DOCTYPE svg PUBLIC "-//W3C//DTD SVG 20010904//EN"
 "http://www.w3.org/TR/2001/REC-SVG-20010904/DTD/svg10.dtd">
<svg version="1.0" xmlns="http://www.w3.org/2000/svg"
 width="512.000000pt" height="512.000000pt" viewBox="0 0 512.000000 512.000000"
 preserveAspectRatio="xMidYMid meet">
<metadata>
Created by potrace 1.11, written by Peter Selinger 2001-2013
</metadata>
<g transform="translate(0.000000,512.000000) scale(0.100000,-0.100000)"
fill="#000000" stroke="none">
<path d="M2275 4624 c-837 -114 -1527 -734 -1736 -1560 -80 -317 -80 -691 0
-1008 213 -843 912 -1458 1781 -1566 109 -13 371 -13 480 0 320 40 643 157
900 327 396 262 686 638 834 1083 77 230 106 413 106 660 0 247 -29 430 -106
660 -251 753 -915 1302 -1701 1405 -140 18 -420 18 -558 -1z m505 -174 c358
-45 699 -188 970 -407 157 -128 316 -305 415 -464 269 -433 357 -922 255
-1417 -58 -277 -204 -580 -389 -806 -77 -93 -237 -247 -331 -317 -505 -378
-1157 -481 -1755 -278 -552 188 -1002 638 -1186 1190 -134 400 -134 818 0
1218 64 192 178 403 305 566 68 87 229 247 321 320 272 213 599 349 945 394
95 12 353 13 450 1z"/>
</g>
</svg>
